REM MD5 ce0078df360d51bb2acfdcf07f13a45a
FILE "VR Sports Powerboat Racing (Europe) (Demo).bin" BINARY
  TRACK 01 MODE2/2352
    INDEX 01 00:00:00
  TRACK 02 AUDIO
    INDEX 00 01:10:39
    INDEX 01 01:12:39
  TRACK 03 AUDIO
    INDEX 00 04:08:47
    INDEX 01 04:10:47
REM LEADOUT 07:08:69
